<?xml version="1.0" standalone="no"?>
<!DOCTYPE svg PUBLIC "-//W3C//DTD SVG 20010904//EN"
 "http://www.w3.org/TR/2001/REC-SVG-20010904/DTD/svg10.dtd">
<svg version="1.0" xmlns="http://www.w3.org/2000/svg"
 width="400.000000pt" height="400.000000pt" viewBox="0 0 400.000000 400.000000"
 preserveAspectRatio="xMidYMid meet">

<g transform="translate(0.000000,400.000000) scale(0.100000,-0.100000)"
fill="#000000" stroke="none">
<path d="M843 2548 c4 -1072 5 -1111 46 -1313 62 -307 271 -544 583 -662 137
-52 287 -74 543 -80 329 -8 523 23 712 112 240 113 385 271 463 502 71 215 80
372 80 1531 l0 952 -310 0 -309 0 -4 -1072 c-4 -1176 -2 -1146 -63 -1258 -33
-60 -124 -149 -183 -179 -117 -60 -355 -81 -519 -47 -158 33 -296 135 -361
268 -64 129 -63 116 -68 1256 l-5 1032 -304 0 -305 0 4 -1042z"/>
</g>
</svg>
