<?xml version="1.0" standalone="no"?>
<!DOCTYPE svg PUBLIC "-//W3C//DTD SVG 20010904//EN"
 "http://www.w3.org/TR/2001/REC-SVG-20010904/DTD/svg10.dtd">
<svg version="1.0" xmlns="http://www.w3.org/2000/svg"
 width="400.000000pt" height="400.000000pt" viewBox="0 0 400.000000 400.000000"
 preserveAspectRatio="xMidYMid meet">

<g transform="translate(0.000000,400.000000) scale(0.100000,-0.100000)"
fill="#000000" stroke="none">
<path d="M2321 2595 c-452 -591 -825 -1076 -829 -1079 -4 -2 -157 140 -340
316 l-333 321 -107 -104 c-59 -58 -181 -176 -272 -263 l-165 -159 67 -61 c36
-33 326 -311 643 -616 317 -305 580 -556 584 -558 8 -3 2116 2747 2116 2760 0
7 -522 511 -534 516 -4 1 -377 -481 -830 -1073z"/>
</g>
</svg>
