<?xml version="1.0" standalone="no"?>
<!DOCTYPE svg PUBLIC "-//W3C//DTD SVG 20010904//EN"
 "http://www.w3.org/TR/2001/REC-SVG-20010904/DTD/svg10.dtd">
<svg version="1.0" xmlns="http://www.w3.org/2000/svg"
 width="400.000000pt" height="400.000000pt" viewBox="0 0 400.000000 400.000000"
 preserveAspectRatio="xMidYMid meet">

<g transform="translate(0.000000,400.000000) scale(0.100000,-0.100000)"
fill="#000000" stroke="none">
<path d="M0 3585 c0 -10 162 -697 360 -1526 198 -829 360 -1510 360 -1513 0
-4 152 -5 337 -4 l338 3 36 135 c434 1636 564 2118 570 2112 5 -5 233 -852
583 -2167 l21 -80 329 0 329 0 368 1515 c203 833 369 1521 369 1529 0 12 -46
13 -307 8 -169 -4 -308 -9 -310 -11 -3 -2 -335 -1501 -446 -2010 -15 -69 -23
-93 -29 -80 -4 11 -122 478 -263 1039 -141 561 -258 1028 -261 1038 -5 16 -32
17 -375 17 -203 0 -369 -3 -369 -6 0 -6 -524 -1974 -543 -2038 -10 -37 -16
-19 -99 360 -48 219 -151 688 -229 1042 l-142 642 -246 0 c-135 0 -276 3 -313
7 -61 5 -68 4 -68 -12z"/>
</g>
</svg>
